<svg xmlns="http://www.w3.org/2000/svg" viewBox="0 0 76 40" fill="none"><path class="text-white" fill-rule="evenodd" clip-rule="evenodd" d="M44.554 25.9951C44.554 23.8582 43.0455 22.1778 40.9102 22.1778C38.7753 22.1778 37.0955 23.8019 37.0955 25.9951C37.0955 28.1604 38.7753 29.8414 40.9102 29.8414C43.0455 29.8414 44.554 28.1319 44.554 25.9951ZM33.2809 26.024C33.2809 20.9811 36.9821 18.6171 40.1982 18.6171C42.0487 18.6171 43.501 19.3864 44.4401 20.4401V18.9022H48.3402V32.9177C48.3402 37.1913 45.1803 39.9823 41.4507 39.9823C37.4376 39.9823 34.8184 37.6472 33.9925 34.5414H38.2058C38.7469 35.6818 39.6008 36.3365 41.4507 36.3365C43.1589 36.3365 44.4401 34.8835 44.4401 33.0319V31.5505C43.501 32.6611 41.992 33.4303 40.1415 33.4303C37.1239 33.4303 33.2809 31.0375 33.2809 26.024ZM28.2984 25.9951C28.2984 23.8019 26.6754 22.1778 24.4833 22.1778C22.3484 22.1778 20.8394 23.8582 20.8394 25.9951C20.8394 28.1319 22.3484 29.8414 24.4833 29.8414C26.6754 29.8414 28.2984 28.1604 28.2984 25.9951ZM20.9534 31.7493V39.6973H17.0537V18.9022H20.9534V20.5252C21.8645 19.4146 23.2879 18.6171 25.2235 18.6171C28.4407 18.6171 32.1125 20.9811 32.1125 26.024C32.1125 31.0375 28.3267 33.4303 25.2804 33.4303C23.3735 33.4303 21.8645 32.8047 20.9534 31.7493ZM11.2731 25.9951C11.2731 23.8582 9.764 22.1778 7.62928 22.1778C5.49384 22.1778 3.81413 23.8019 3.81413 25.9951C3.81413 28.1604 5.49384 29.8414 7.62928 29.8414C9.764 29.8414 11.2731 28.1319 11.2731 25.9951ZM6.10352e-05 26.024C6.10352e-05 20.9811 3.70067 18.6171 6.91731 18.6171C8.76793 18.6171 10.2195 19.3001 11.1585 20.2981V12.3496H15.0593V33.1458H11.1585V31.5505C10.2195 32.6611 8.71111 33.4303 6.86049 33.4303C3.84299 33.4303 6.10352e-05 31.0375 6.10352e-05 26.024Z" fill="currentColor" data-darkreader-inline-fill="" style="--darkreader-inline-fill: currentColor;"></path><path class="text-white" fill-rule="evenodd" clip-rule="evenodd" d="M47.4524 14.2918C47.4524 15.0834 46.8636 15.7254 46.0635 15.7254C45.2811 15.7254 44.675 15.1007 44.675 14.2918C44.675 13.4908 45.2811 12.8666 46.0635 12.8666C46.8636 12.8666 47.4524 13.5177 47.4524 14.2918ZM43.7432 14.3005C43.7432 15.699 44.8154 16.5875 45.9316 16.5875C46.5206 16.5875 47.0565 16.3232 47.3997 15.8927V16.4993H48.3402V12.1013H47.3997V12.6732C47.0743 12.26 46.5296 12.0131 45.9408 12.0131C44.7805 12.0131 43.7432 12.8929 43.7432 14.3005ZM41.871 16.4991H42.8206V12.1013H41.871V16.4991ZM42.3454 10.1577C41.9674 10.1577 41.7123 10.4127 41.7123 10.7905C41.7123 11.1693 41.9674 11.4243 42.3454 11.4243C42.7234 11.4243 42.9782 11.1693 42.9782 10.7905C42.9782 10.4127 42.7234 10.1577 42.3454 10.1577ZM39.7349 14.2918C39.7349 15.0834 39.146 15.7254 38.346 15.7254C37.5636 15.7254 36.9574 15.1007 36.9574 14.2918C36.9574 13.4908 37.5636 12.8666 38.346 12.8666C39.146 12.8666 39.7349 13.5177 39.7349 14.2918ZM36.0257 14.3005C36.0257 15.699 37.0979 16.5875 38.2142 16.5875C38.8029 16.5875 39.339 16.3232 39.6822 15.8927V16.4993H40.6139V10.0781H39.6822V12.6732C39.3568 12.26 38.8121 12.0131 38.2232 12.0131C37.0629 12.0131 36.0257 12.8929 36.0257 14.3005ZM31.5504 13.808C31.7348 13.2451 32.2359 12.8487 32.8775 12.8487C33.5459 12.8487 34.0115 13.1833 34.1787 13.808H31.5504ZM30.5922 14.3182C30.5922 15.5586 31.4713 16.5875 32.8602 16.5875C33.9942 16.5875 34.7234 15.9977 35.066 15.0215H34.0555C33.8883 15.4789 33.4754 15.7693 32.8689 15.7693C32.0955 15.7693 31.5944 15.2765 31.4885 14.5996H35.1363V14.274C35.1363 12.9633 34.1696 12.013 32.8689 12.013C31.5767 12.013 30.5922 13.0251 30.5922 14.3182ZM22.6954 12.1014H23.6266V12.6293C23.9085 12.2418 24.3569 12.0132 24.9194 12.0132C25.6222 12.0132 26.1147 12.3129 26.3695 12.8052C26.6772 12.3129 27.1956 12.0132 27.8552 12.0132C29.0593 12.0132 29.6744 12.7256 29.6744 13.8605V16.4992H28.7162V13.9218C28.7162 13.2536 28.365 12.831 27.6968 12.831C27.0987 12.831 26.6509 13.2358 26.6509 14.0188V16.4992H25.7018V13.8783C25.7018 13.2358 25.341 12.831 24.7086 12.831C24.0843 12.831 23.6359 13.2449 23.6359 14.0542V16.4992H22.6954V12.1014Z" fill="currentColor" data-darkreader-inline-fill="" style="--darkreader-inline-fill: currentColor;"></path><mask id="mask0_4266_33119" style="mask-type:alpha" maskUnits="userSpaceOnUse" x="0" y="0" width="76" height="40"><path fill-rule="evenodd" clip-rule="evenodd" d="M0 39.9831H75.9543V0H0V39.9831Z" fill="white" data-darkreader-inline-fill="" style="--darkreader-inline-fill: #181a1b;"></path></mask><g mask="url(#mask0_4266_33119)"><path class="text-white" fill-rule="evenodd" clip-rule="evenodd" d="M53.1422 16.4992H57.0428V10.0781H53.1422V16.4992Z" fill="currentColor" data-darkreader-inline-fill="" style="--darkreader-inline-fill: currentColor;"></path><path class="text-white" fill-rule="evenodd" clip-rule="evenodd" d="M72.0536 12.1002H75.9543V5.21289H72.0536V12.1002Z" fill="currentColor" data-darkreader-inline-fill="" style="--darkreader-inline-fill: currentColor;"></path><path class="text-white" fill-rule="evenodd" clip-rule="evenodd" d="M59.446 18.9019H63.3466V5.21289H59.446V18.9019Z" fill="currentColor" data-darkreader-inline-fill="" style="--darkreader-inline-fill: currentColor;"></path><path class="text-white" fill-rule="evenodd" clip-rule="evenodd" d="M69.6505 0.00152466L65.7566 0L65.7499 16.4982L69.6437 16.4998L69.6505 0.00152466Z" fill="currentColor" data-darkreader-inline-fill="" style="--darkreader-inline-fill: currentColor;"></path></g></svg>