<svg xmlns="http://www.w3.org/2000/svg" xmlns:xlink="http://www.w3.org/1999/xlink" id="Layer_1" x="0px" y="0px" width="269.29px" height="90.71px" viewBox="0 0 269.29 90.71" xml:space="preserve"><g>	<g>		<path fill="#000000" d="M33.105,90.042l0.332-0.998l5.299-15.539l6.295-19.166l4.512-14.69l3.668-11.617l1.794-5.745    c2.204-6.229,4.51-9.012,7.47-9.012c1.074,0,1.878,0.218,3.223,0.879c1.767,0.865,1.914,0.924,2.58,1.085    c0.421,0.1,0.897,0.152,1.411,0.152c3.761,0,6.46-3.031,6.46-7.245c0-4.456-3.413-7.791-7.976-7.791    c-3.804,0-7.849,2.179-10.072,5.425c-2.381,3.467-4.497,8.771-7.825,19.587l-5.908,19.207l-5.878,18.598l-0.289,1.104    L27.426,29.651c-1.09-3.5-1.558-5.699-1.558-7.294c0-2.615,1.716-4.963,4.643-6.346v-0.568H0.708v0.568    c3.332,0.767,5.487,2.043,7.07,4.206c1.601,2.178,3.367,5.975,4.785,10.295l19.606,59.528L33.105,90.042L33.105,90.042z"></path>	</g>	<g>		<path fill="#000000" d="M55.914,21.155v0.57c2.118,1.235,3.257,3.678,3.257,7.001v34.28c0,5.481-1.739,9.778-5.187,12.854v0.572    l1.162-0.504c6.459-2.783,8.698-3.68,13.871-5.563c2.636-0.959,4.906-1.727,6.807-2.319c2.528-0.779,3.731-1.104,6.97-1.896    l0.734-14.666h-0.576c-1.925,8.734-6.521,14.244-13.823,16.553V43.909c4.645,0.238,7.302,2.09,9.063,6.319h0.569V33.281h-0.569    c-1.478,4.888-4.703,8.026-9.063,8.825V23.619h2.608c5.358,0,9.407,3.105,11.021,8.444h0.574l-0.352-10.908H55.914z"></path>	</g>	<g>		<path fill="#000000" d="M188.398,21.155h-11.623v0.57c2.44,1.054,3.438,1.996,4.067,3.839c0.566,1.65,0.847,3.799,0.847,6.476    v14.668h-0.494l-14.004-25.553h-12.521v0.57c2.248,0.917,4.549,3.131,5.887,5.666v25.591c0,6.459-1.59,9.217-5.664,9.812v0.567    l0.748,0.152l2.607,0.477l3.219,0.545l3.691,0.646l2.823,0.453l0.742,0.115v-0.56c-2.283-1.209-3.522-2.363-4.433-4.1    c-0.916-1.758-1.227-3.74-1.227-7.908V33.09h0.424l20.418,37.195h0.578V32.032c0-3.966,0.313-6.516,0.938-7.749    c0.527-1.036,1.736-2.076,2.975-2.559L188.398,21.155L188.398,21.155z"></path>	</g>	<g>		<path fill="#000000" d="M189.099,68.124v0.586l0.555,0.104c5.533,1.017,11.883,1.785,16.154,1.951l0.879,0.033V70.23    c-1.518-0.758-2.49-1.731-3.258-3.258c-0.916-1.793-1.133-3.205-1.133-7.299V30.633c0-5.059,1.438-7.767,4.736-8.942v-0.536    h-17.519v0.536c1.721,1.192,2.967,2.789,3.444,4.421c0.285,0.962,0.48,3.335,0.48,5.733v26.434    C193.439,64.768,192.613,66.645,189.099,68.124"></path>	</g>	<g>		<path fill="#000000" d="M235.855,20.881l-0.403,0.144l-0.673,0.32c-0.784,0.372-1.737,0.612-2.454,0.612    c-0.507,0-1.029-0.075-1.498-0.214l-1.371-0.398c-1.406-0.405-2.859-0.639-4.047-0.639c-9.103,0-16.418,12.409-16.418,27.827    c0,13.521,5.981,23.263,14.278,23.263c5.576,0,10.326-4.513,11.715-11.127c0.431-2.041,0.517-2.675,0.779-5.521h-0.47l-0.229,0.74    c-1.582,5.15-3.967,7.467-7.67,7.467c-5.862,0-9.642-7.965-9.642-20.351c0-6.338,0.808-11.905,2.211-15.387    c0.604-1.491,1.652-2.699,2.978-3.416c0.849-0.458,1.957-0.715,3.084-0.715c4.281,0,7.248,3.461,9.129,10.627l0.13,0.479h0.571    V20.881L235.855,20.881z"></path>	</g>	<g>		<path fill="#000000" d="M102.625,21.155h2.045c4.101,0,6.665,0.401,8.576,1.348c2.475,1.223,4.274,4.359,4.274,7.455    c0,2.445-1.117,4.986-2.869,6.535c-1.831,1.63-4.283,2.744-8.718,3.978c7.514,1.283,9.518,3.615,11.563,13.458    c0.594,2.861,0.669,3.137,1.087,4.045c0.504,1.088,1.204,1.502,2.578,1.502c0.628,0,1.121-0.063,2.323-0.293l0.218,0.4    c-1.945,1.961-4.829,3.174-7.523,3.174c-2.289,0-4.376-0.922-5.817-2.568c-1.018-1.152-1.789-2.549-2.28-4.088    c-0.625-1.986-0.804-2.818-1.737-8.021c-0.85-4.77-2.404-6.477-5.896-6.477c-0.305,0-0.567,0.016-1.094,0.066l-0.354,0.032v11.827    c0,5.179,0.832,6.781,4.079,7.838v0.566l-0.4,0.037l-1.806,0.141c-1.296,0.095-5.48,0.838-8.567,1.517    c-2.728,0.594-4.208,0.994-6.558,1.737l-0.124-0.571c1.805-1.611,2.357-2.281,3.062-3.656c0.882-1.744,1.118-3.016,1.118-6.092    V31.13v-1.148c0-5.315-0.727-6.877-3.85-8.256v-0.57H102.625z M99.001,39.237c5.902-0.219,9.127-3.377,9.127-8.941    c0-4.818-2.253-6.803-7.733-6.803l-0.17,0.005l-0.667,0.008h-0.557V39.237z"></path>	</g>	<g>		<path fill="#000000" d="M262.333,44.597c0.104,0.451,0.356,1.313,0.752,2.593c1.297,4.205,1.731,5.226,2.651,6.221    c0.646,0.705,1.441,0.998,2.72,1.007l0.146,0.573c-4.584,3.037-10.307,6.017-15.58,8.109l-0.096-0.572    c1.73-1.483,2.586-3.672,2.586-6.573c0-1.892-0.307-4.039-0.969-6.781l-0.609-2.486c-1.797,0.787-4.656,1.805-7.629,2.73    l-0.627,0.192l-1.283,5.529l-0.23,0.938c-0.389,1.613-0.629,3.359-0.629,4.671c0,2.475,0.777,3.438,3.271,4.055l0.09,0.563    c-1.648,0.574-4.365,1.371-7.66,2.236l-4.164,1.096l-0.891,0.24l-0.08-0.592c2.141-1.656,2.771-2.273,3.678-3.564    c1.066-1.53,2.398-4.825,3.371-8.36l1.342-4.847l0.297-1.151l5.306-24.688c-1.494-1.98-2.543-2.783-5.244-4.01v-0.57h13.813    L262.333,44.597z M249.663,30.943l-3.511,15.582l0.267-0.069c3.387-0.881,4.363-1.208,6.863-2.292l-3.263-13.228L249.663,30.943z"></path>	</g>	<g>		<path fill="#000000" d="M154.925,41.741c0,13.831-6.086,21.938-16.467,21.938c-10.382,0-16.464-8.105-16.464-21.944    c0-13.969,5.799-21.563,16.464-21.563C149.126,20.172,154.925,27.765,154.925,41.741 M132.021,41.099    c0,5.661,0.25,9.395,0.93,13.823c0.68,4.401,2.251,6.139,5.574,6.139c1.914,0,3.377-0.742,4.166-2.121    c1.436-2.488,2.207-8.717,2.207-17.796c0-13.771-1.563-18.189-6.439-18.189C133.587,22.954,132.024,27.363,132.021,41.099"></path>	</g>	<g>		<path fill="#000000" d="M261.167,65.635c-4.728,3.203-11.455,6.434-18.142,8.705c-9.291,3.151-19.31,4.703-30.453,4.703    c-7.403,0-11.37-0.379-23.426-2.234l-13.485-2.086l-14.328-2.459c-7.033-1.215-16.129-2.328-23.488-2.885    c-5.246-0.396-10.462-0.593-15.628-0.593c-15.242,0-29.241,1.707-41.091,5.017c-6.382,1.779-12.914,4.227-19.54,7.32    c-6.916,3.235-9.39,4.639-15.407,8.754l0.342,0.475c9.072-5.01,15.209-7.408,24.16-9.434c6.323-1.433,10.957-1.955,17.28-1.955    c3.292,0,7.042,0.166,10.714,0.481c2.403,0.207,5.671,0.563,9.799,1.072c5.479,0.682,9.798,1.297,12.954,1.854l13.239,2.328    c1.939,0.341,5.698,0.959,11.28,1.854c5.553,0.883,9.373,1.479,11.445,1.768c8.844,1.244,16.01,1.783,23.621,1.783    c20.398,0,41.301-4.096,58.893-11.535c9.27-3.922,17.357-8.627,21.568-12.549L261.167,65.635z"></path>	</g></g><g>	<polygon fill="#000000" points="132.75,14.045 127.835,1.533 130.332,1.533 134.121,11.644 137.909,1.533 140.402,1.533    135.491,14.045  "></polygon>	<polygon fill="#000000" points="144.001,14.045 144.001,1.533 152.573,1.533 152.573,3.466 146.193,3.466 146.193,6.692    152.439,6.692 152.439,8.625 146.193,8.625 146.193,12.113 152.573,12.113 152.573,14.045  "></polygon>	<g>		<g>			<path fill="#000000" d="M164.423,5.436c0-1.2-0.9-1.969-2.139-1.969h-3.021v3.976h3.021     C163.521,7.442,164.423,6.653,164.423,5.436 M164.216,14.045l-2.758-4.67h-2.193v4.67h-2.195V1.533h5.496     c2.477,0,4.107,1.596,4.107,3.921c0,2.214-1.463,3.433-2.982,3.677l3.076,4.914H164.216z"></path>		</g>	</g>	<polygon fill="#000000" points="171.113,14.045 171.113,1.533 179.687,1.533 179.687,3.466 173.31,3.466 173.31,6.692    179.556,6.692 179.556,8.625 173.31,8.625 173.31,12.113 179.687,12.113 179.687,14.045  "></polygon>	<polygon fill="#000000" points="192.904,14.045 186.378,5.099 186.378,14.045 184.185,14.045 184.185,1.533 186.437,1.533    192.831,10.2 192.831,1.533 195.025,1.533 195.025,14.045  "></polygon>	<rect x="199.935" y="1.533" fill="#000000" width="2.193" height="12.512"></rect>	<g>		<g>			<path fill="#000000" d="M206.497,7.799c0-3.939,2.926-6.472,6.565-6.472c2.437,0,4.03,1.163,5.024,2.589l-1.78,1.03     c-0.675-0.938-1.856-1.668-3.244-1.668c-2.478,0-4.315,1.875-4.315,4.521c0,2.606,1.84,4.52,4.315,4.52     c1.274,0,2.399-0.582,2.961-1.125V9.262h-3.75V7.329h5.929v4.67c-1.22,1.369-2.984,2.288-5.14,2.288     C209.423,14.289,206.497,11.72,206.497,7.799"></path>		</g>	</g>	<rect x="222.734" y="1.533" fill="#000000" width="2.195" height="12.512"></rect>	<polygon fill="#000000" points="238.564,14.045 232.038,5.099 232.038,14.045 229.843,14.045 229.843,1.533 232.093,1.533    238.488,10.2 238.488,1.533 240.685,1.533 240.685,14.045  "></polygon>	<g>		<g>			<path fill="#000000" d="M245.048,7.799c0-3.939,2.928-6.472,6.565-6.472c2.438,0,4.031,1.163,5.025,2.589l-1.781,1.03     c-0.676-0.938-1.856-1.668-3.244-1.668c-2.475,0-4.315,1.875-4.315,4.521c0,2.606,1.842,4.52,4.315,4.52     c1.273,0,2.4-0.582,2.964-1.125V9.262h-3.752V7.329h5.928v4.67c-1.221,1.369-2.982,2.288-5.14,2.288     C247.976,14.289,245.048,11.72,245.048,7.799"></path>		</g>	</g></g></svg>